<svg xmlns="http://www.w3.org/2000/svg" fill="none" viewBox="0 0 348 348"><path stroke="#000" stroke-width="2" d="M5 5.8h337v337.6H5z"/><path stroke="#000" stroke-width="2" d="M282.7 40.6c0-8.4 7-15.2 15.6-15.2 4.1 0 8 1.6 11 4.4a15 15 0 0 1 4.6 10.8c0 8.3-7 15.1-15.6 15.1s-15.6-6.8-15.6-15.2z"/><path stroke="#000" stroke-width="3" d="M40 207.9h105v100H40zm118.1 0h105v100h-105z"/><path fill="#000" stroke="#000" stroke-width="3" d="M40 95.9h223.1v99.8H40z"/><path fill="#4d4d4d" stroke="#000" stroke-width="3.1" d="M170.5 115.6h71.3v16h-71.3zm.3 22.6h71.3v16h-71.3zm0 21.8h71.3v16.2h-71.3z"/><g aria-label="NUMBAH?" style="font-style:normal;font-variant:normal;font-weight:400;font-stretch:normal;font-size:33.28170013px;line-height:1.25;font-family:Audiowide;-inkscape-font-specification:Audiowide;text-align:center;letter-spacing:0;word-spacing:0;writing-mode:lr-tb;text-anchor:middle;fill:#000;fill-opacity:1;stroke:none;stroke-width:1.2480638"><path d="M91.49 97.116V73.292h3.234l12.513 18.705V73.292h3.023v23.824h-3.234L94.513 78.395v18.72zM131.207 73.292h3.153v13.765q0 3.591-.813 5.704-.812 2.112-2.941 3.445-2.113 1.316-5.558 1.316-3.347 0-5.476-1.154-2.13-1.154-3.04-3.331-.91-2.194-.91-5.98V73.292h3.153V87.04q0 3.104.57 4.583.584 1.463 1.982 2.259 1.414.796 3.445.796 3.478 0 4.956-1.576 1.48-1.576 1.48-6.062zM139.528 97.116V73.292h4.745l5.639 16.868q.78 2.357 1.138 3.527.406-1.3 1.267-3.819l5.704-16.576h4.242v23.824h-3.04v-19.94l-6.922 19.94h-2.844l-6.89-20.281v20.28zM167.252 97.116V73.292h8.938q2.73 0 4.371.731 1.658.715 2.584 2.227.943 1.495.943 3.136 0 1.528-.83 2.877-.828 1.348-2.502 2.177 2.161.634 3.315 2.162 1.17 1.527 1.17 3.607 0 1.674-.715 3.12-.699 1.43-1.739 2.21t-2.616 1.187q-1.56.39-3.835.39zm3.152-13.813h5.152q2.096 0 3.006-.277 1.203-.357 1.804-1.186.618-.829.618-2.08 0-1.186-.57-2.08-.568-.91-1.624-1.235-1.057-.341-3.624-.341h-4.762zm0 11.001h5.932q1.527 0 2.145-.113 1.089-.195 1.82-.65.731-.455 1.203-1.317.47-.877.47-2.015 0-1.332-.682-2.307-.682-.992-1.901-1.382-1.203-.406-3.478-.406h-5.509zM186.996 97.116l9.15-23.824h3.396l9.75 23.824h-3.59l-2.78-7.216h-9.962l-2.616 7.216zm6.875-9.783h8.076l-2.486-6.598q-1.138-3.006-1.69-4.94-.455 2.291-1.284 4.55zM211.941 97.116V73.292h3.153v9.783h12.383v-9.783h3.153v23.824h-3.153v-11.23h-12.383v11.23zM240.998 91.25q-.016-.586-.016-.878 0-1.723.487-2.974.358-.943 1.154-1.902.585-.698 2.096-2.03 1.528-1.35 1.983-2.146.455-.796.455-1.739 0-1.706-1.333-2.99-1.332-1.3-3.266-1.3-1.869 0-3.12 1.17-1.251 1.17-1.641 3.656l-3.007-.357q.406-3.331 2.405-5.103 2.015-1.771 5.314-1.771 3.494 0 5.574 1.901 2.08 1.902 2.08 4.6 0 1.56-.73 2.876-.732 1.316-2.861 3.201-1.43 1.268-1.869 1.869-.439.601-.65 1.381-.211.78-.244 2.535zm-.179 5.866v-3.332h3.332v3.332z" style="font-style:normal;font-variant:normal;font-weight:400;font-stretch:normal;font-family:Arial;-inkscape-font-specification:Arial;fill:#fff;stroke-width:1.2480638" transform="matrix(.58439 0 0 .75892 0 81.137)"/></g><g aria-label="Number" style="font-style:normal;font-variant:normal;font-weight:400;font-stretch:normal;font-size:31.7648201px;line-height:1.25;font-family:Audiowide;-inkscape-font-specification:Audiowide;text-align:center;letter-spacing:0;word-spacing:0;writing-mode:lr-tb;text-anchor:middle;fill:#000;fill-opacity:1;stroke:none;stroke-width:1.19118071"><path d="M65.808 224.01q.558.93.93 1.629.388.698.791 1.566h.202q-.078-.946-.14-3.753-.062-2.823-.062-5.088v-3.257q0-1.07-.062-1.566-.062-.497-.232-.76-.156-.264-.45-.419-.28-.17-.993-.372v-.76h5.584v.76q-.698.186-.993.341-.28.155-.465.403-.17.248-.264.745-.093.496-.093 1.628v17.387h-1.939l-8.639-14.486q-.806-1.35-1.148-1.97-.34-.62-.636-1.225h-.263q.108 1.194.155 4.327.046 3.118.046 6.22v3.164q0 1.039.062 1.52.078.48.233.76.17.279.48.465.327.186 1.04.372v.76h-5.661v-.76q.962-.248 1.287-.543.326-.31.419-.868.109-.559.109-1.706v-13.417q0-1.07-.078-1.55-.078-.497-.264-.76-.17-.28-.465-.435-.295-.17-1.008-.372v-.76h4.855zM74.26 217.573h4.421v7.895q0 1.815.14 2.76.14.947.418 1.428.28.48.791.806.512.326 1.412.326.59 0 1.132-.233.543-.232 1.21-.806.667-.59.946-1.163.295-.574.295-1.334v-5.817q0-.884-.047-1.333-.046-.45-.155-.714-.109-.28-.264-.45-.14-.17-.418-.31-.264-.14-.869-.295v-.76h4.42v10.594q0 1.194.047 1.722.046.527.202.837.155.31.48.512.326.186 1.164.357v.806l-3.552.155h-.946l.093-2.543-.233-.062q-1.287 1.395-2.466 2.047-1.163.651-2.342.651-1.411 0-2.327-.558-.915-.558-1.364-1.66-.45-1.116-.45-3.133v-5.862q0-1.303-.109-1.784-.093-.496-.388-.776-.279-.294-1.24-.543zM96.378 219.962l.217.062q.93-.93 1.52-1.396.605-.48 1.164-.76.558-.295 1.039-.419.496-.124 1.008-.124 1.55 0 2.528.714.977.713 1.35 2.187 1.163-1.18 1.876-1.738.73-.558 1.474-.853.76-.31 1.628-.31 1.04 0 1.784.31.76.295 1.272.931.527.62.76 1.567.248.946.248 2.543v5.848q0 1.178.077 1.628.078.45.218.698.155.248.45.434.294.171.992.357v.76h-6.095v-.76q.604-.186.868-.326t.434-.387q.187-.249.28-.76.108-.528.108-1.582v-4.064q0-1.318-.077-2.171-.062-.869-.218-1.38-.14-.513-.356-.807-.202-.295-.466-.512-.263-.217-.62-.341-.357-.125-.946-.125-.62 0-1.163.249-.528.248-1.164.837-.62.59-.9 1.194-.278.59-.278 1.396v5.662q0 1.178.077 1.628.078.45.217.698.155.248.45.434.295.171.993.357v.76h-6.096v-.76q.605-.186.869-.326.263-.14.434-.387.186-.249.28-.76.108-.528.108-1.582v-4.064q0-1.38-.078-2.249-.077-.869-.248-1.396-.155-.527-.419-.853-.248-.326-.512-.496-.263-.17-.62-.248-.357-.094-.806-.094-.636 0-1.195.295-.558.28-1.148.822-.573.543-.868 1.132-.295.59-.295 1.272v5.817q0 .884.047 1.349.046.465.14.729.108.264.263.434.155.155.434.31.295.14.869.295v.76h-6.08v-.76q.59-.186.837-.326.264-.14.45-.387.186-.249.28-.76.092-.512.092-1.598v-6.762q0-.993-.03-1.598-.032-.605-.218-.962-.186-.372-.574-.542-.372-.187-1.07-.31v-.823l3.63-.14h.946zM122.528 220.009l.062.015q1.086-1.132 1.8-1.644.728-.512 1.488-.776.776-.279 1.691-.279 1.66 0 2.838.853 1.195.838 1.83 2.528.652 1.691.652 4.142 0 2.528-.775 4.28-.76 1.738-2.265 2.637-1.489.884-3.536.884-1.148 0-2.172-.217-1.008-.201-2.125-.729l-1.085.946-1.07-.248v-16.86q0-1.488-.032-2.078-.015-.59-.124-.992-.093-.42-.279-.652-.17-.232-.48-.372-.295-.14-1.086-.28v-.806l3.753-.155h.915zm0 6.808q0 1.195.109 1.908.108.698.357 1.164.263.465.744.853.496.387 1.101.542.605.14 1.35.14 1.86 0 2.823-1.52.961-1.52.961-4.56 0-3.071-.884-4.606-.869-1.552-2.637-1.552-.884 0-1.504.28-.62.263-1.241.837-.605.574-.9 1.132-.279.559-.279 1.272zM148.384 229.764q-.993 1.04-1.83 1.629-.823.59-1.815.93-.993.326-2.187.326-3.195 0-4.824-1.907-1.628-1.924-1.628-5.662 0-2.31.822-4.079.837-1.768 2.373-2.73 1.535-.961 3.536-.961 1.567 0 2.668.496 1.101.496 1.752 1.365.667.853 1.024 2.171.372 1.303.419 3.413h-9.771v.279q0 1.83.403 3.086.419 1.241 1.35 1.955.945.698 2.45.698 1.272 0 2.28-.466 1.023-.48 2.032-1.55zm-2.606-6.297q-.093-1.675-.419-2.73-.325-1.07-.977-1.628-.651-.574-1.706-.574-1.598 0-2.56 1.287-.945 1.272-1.116 3.645zM155.689 220.148l.217.047q.853-1.04 1.582-1.629.73-.605 1.567-.93.853-.326 1.923-.326.9 0 1.629.093v3.567h-1.753q-.372-.837-.791-1.21-.419-.387-1.148-.387-.558 0-1.117.325-.542.326-1.054.946-.512.62-.714 1.164-.186.543-.186 1.287v5.429q0 1.411.17 1.954.171.527.56.775.402.249 1.193.388v.76h-6.25v-.76q.59-.186.837-.326.264-.14.45-.387.186-.248.28-.76.092-.512.092-1.598v-6.762q0-.993-.03-1.598-.032-.605-.218-.961-.186-.373-.574-.543-.372-.186-1.07-.31v-.807l3.63-.155h.946z" style="font-style:normal;font-variant:normal;font-weight:400;font-stretch:normal;font-family:Cambria;-inkscape-font-specification:Cambria;stroke-width:1.19118071" transform="scale(.85858 1.16471)"/></g><g aria-label="Not Number" style="font-style:normal;font-variant:normal;font-weight:400;font-stretch:normal;font-size:25.641716px;line-height:1.25;font-family:Audiowide;-inkscape-font-specification:Audiowide;text-align:center;letter-spacing:0;word-spacing:0;writing-mode:lr-tb;text-anchor:middle;fill:#000;fill-opacity:1;stroke:none;stroke-width:.9615643"><path d="M248.28 180.83q.45.75.75 1.314.314.563.64 1.264h.162q-.063-.763-.113-3.03-.05-2.278-.05-4.106v-2.63q0-.863-.05-1.264-.05-.4-.188-.614-.125-.212-.363-.338-.225-.137-.801-.3v-.614h4.507v.614q-.563.15-.801.275-.225.125-.376.326-.137.2-.213.6-.075.401-.075 1.315v14.036h-1.565l-6.974-11.694q-.65-1.09-.926-1.59-.276-.501-.513-.99h-.213q.087.965.125 3.494.038 2.516.038 5.02v2.555q0 .838.05 1.227.062.388.187.613.138.225.389.376.263.15.838.3v.614h-4.57v-.614q.777-.2 1.04-.438.263-.25.338-.701.087-.45.087-1.377v-10.83q0-.864-.062-1.253-.063-.4-.213-.613-.138-.225-.376-.35-.238-.138-.814-.301v-.614h3.92zM260.85 187.803q-2.604 0-3.982-1.528-1.364-1.54-1.364-4.544 0-2.066.713-3.494.727-1.427 1.979-2.116 1.252-.7 2.854-.7 2.68 0 4.057 1.564 1.377 1.553 1.377 4.47 0 2.079-.689 3.506-.688 1.427-1.953 2.14-1.264.702-2.992.702zm-2.98-6.335q0 2.579.814 3.969.826 1.377 2.354 1.377.839 0 1.427-.4.588-.414.952-1.103.375-.688.538-1.59.163-.914.163-1.903 0-1.84-.413-3.055-.401-1.214-1.102-1.778-.701-.576-1.603-.576-1.515 0-2.329 1.315-.801 1.315-.801 3.744zM268.274 176.26q.626-.101 1.015-.351.388-.25.6-.639.226-.4.351-.989.125-.601.263-1.74h1.778v3.092h4.044v1.265h-4.044v5.571q0 1.215.1 1.94.1.715.376 1.128.275.4.626.576.35.175.901.175.501 0 .94-.2.437-.213.863-.601l.564.676q-.89.864-1.69 1.252-.79.388-1.64.388-1.616 0-2.405-.952-.789-.964-.789-3.004v-6.95h-1.853zM293.703 180.83q.451.75.752 1.314.313.563.638 1.264h.163q-.063-.763-.113-3.03-.05-2.278-.05-4.106v-2.63q0-.863-.05-1.264-.05-.4-.188-.614-.125-.212-.363-.338-.225-.137-.801-.3v-.614h4.507v.614q-.563.15-.801.275-.226.125-.376.326-.138.2-.213.6-.075.401-.075 1.315v14.036h-1.565l-6.974-11.694q-.65-1.09-.926-1.59-.276-.501-.513-.99h-.213q.087.965.125 3.494.037 2.516.037 5.02v2.555q0 .838.05 1.227.063.388.188.613.138.225.389.376.262.15.838.3v.614h-4.57v-.614q.777-.2 1.04-.438.263-.25.338-.701.087-.45.087-1.377v-10.83q0-.864-.062-1.253-.063-.4-.213-.613-.138-.225-.376-.35-.238-.138-.814-.301v-.614h3.92zM300.527 175.633h3.568v6.373q0 1.465.113 2.229.113.763.338 1.152.225.388.639.65.413.264 1.139.264.476 0 .914-.188.438-.188.976-.651.539-.476.764-.94.238-.463.238-1.076v-4.695q0-.714-.038-1.077-.037-.363-.125-.576-.087-.225-.213-.363-.112-.138-.338-.25-.212-.113-.7-.238v-.614h3.568v8.552q0 .964.037 1.39.038.425.163.675.125.25.388.414.263.15.939.288v.65l-2.867.126h-.764l.075-2.053-.188-.05q-1.039 1.126-1.99 1.652-.94.526-1.89.526-1.14 0-1.879-.45-.739-.452-1.102-1.34-.363-.902-.363-2.53v-4.732q0-1.052-.087-1.44-.076-.4-.313-.626-.226-.238-1.002-.438zM318.381 177.561l.175.05q.751-.75 1.227-1.126.489-.389.94-.614.45-.238.838-.338.4-.1.814-.1 1.252 0 2.04.576.79.576 1.09 1.765.94-.951 1.515-1.402.588-.45 1.19-.689.613-.25 1.314-.25.839 0 1.44.25.613.238 1.027.752.425.5.613 1.264.2.764.2 2.053v4.72q0 .952.063 1.315t.175.564q.126.2.363.35.238.138.802.288v.614h-4.92v-.614q.488-.15.7-.263.213-.112.35-.313.151-.2.226-.613.088-.426.088-1.277v-3.28q0-1.065-.063-1.754-.05-.7-.175-1.114-.113-.413-.288-.65-.163-.239-.376-.414-.212-.175-.5-.276-.288-.1-.764-.1-.5 0-.94.2-.425.201-.938.677-.501.476-.726.964-.226.476-.226 1.127v4.57q0 .951.063 1.314.062.363.175.564.125.2.363.35.238.138.802.288v.614h-4.921v-.614q.488-.15.701-.263.213-.112.35-.313.151-.2.226-.613.088-.426.088-1.277v-3.28q0-1.115-.063-1.816-.062-.701-.2-1.127-.125-.426-.338-.689-.2-.263-.413-.4-.213-.138-.501-.2-.288-.076-.651-.076-.514 0-.964.238-.451.226-.927.664-.463.438-.701.914-.238.476-.238 1.026v4.696q0 .713.038 1.089.037.375.112.588.088.213.213.35.125.126.35.251.239.113.702.238v.614h-4.908v-.614q.476-.15.676-.263.213-.112.363-.313.15-.2.226-.613.075-.413.075-1.29v-5.459q0-.801-.025-1.29-.025-.488-.176-.776-.15-.3-.463-.438-.3-.15-.864-.25v-.664l2.93-.112h.764zM339.49 177.599l.05.012q.877-.914 1.453-1.327.588-.413 1.202-.626.626-.225 1.364-.225 1.34 0 2.292.688.964.677 1.477 2.041.526 1.365.526 3.343 0 2.041-.626 3.456-.614 1.402-1.828 2.128-1.202.714-2.855.714-.926 0-1.753-.175-.813-.163-1.715-.589l-.876.764-.864-.2v-13.61q0-1.202-.025-1.678-.013-.475-.1-.801-.075-.338-.226-.526-.137-.188-.388-.3-.238-.113-.876-.226v-.65l3.03-.126h.738zm0 5.496q0 .964.088 1.54.088.564.288.94.213.375.6.688.402.313.89.438.488.113 1.09.113 1.502 0 2.278-1.227t.776-3.681q0-2.48-.714-3.719-.7-1.252-2.128-1.252-.714 0-1.215.226-.5.213-1.001.676-.488.463-.726.914-.226.45-.226 1.026zM360.362 185.474q-.802.84-1.478 1.315-.663.476-1.465.751-.8.263-1.765.263-2.58 0-3.894-1.54-1.314-1.553-1.314-4.57 0-1.866.663-3.293.676-1.427 1.916-2.203 1.24-.777 2.854-.777 1.265 0 2.154.401.889.4 1.415 1.102.538.688.826 1.753.3 1.051.338 2.754h-7.888v.225q0 1.478.326 2.492.338 1.002 1.09 1.578.763.563 1.977.563 1.027 0 1.84-.376.827-.388 1.641-1.252zm-2.104-5.083q-.075-1.352-.338-2.204-.263-.864-.788-1.314-.526-.464-1.378-.464-1.29 0-2.066 1.04-.763 1.026-.901 2.942zM366.259 177.712l.175.037q.689-.839 1.277-1.314.589-.489 1.265-.752.688-.263 1.552-.263.726 0 1.315.075v2.88h-1.415q-.3-.676-.638-.976-.338-.313-.927-.313-.45 0-.901.262-.439.263-.852.764t-.576.94q-.15.437-.15 1.038v4.383q0 1.139.138 1.577.138.426.45.626.326.2.965.313v.614h-5.046v-.614q.476-.15.676-.263.213-.112.363-.313.15-.2.225-.613.076-.413.076-1.29v-5.459q0-.801-.025-1.29-.025-.488-.176-.776-.15-.3-.463-.438-.3-.15-.864-.25v-.651l2.93-.126h.764z" style="font-style:normal;font-variant:normal;font-weight:400;font-stretch:normal;font-family:Cambria;-inkscape-font-specification:Cambria;stroke-width:.9615643" transform="scale(.69308 1.44284)"/></g></svg>